# xmcd
#
# Track frame offsets:
# 150
# 16018
# 31357
# 45564
# 60635
# 76472
# 96750
# 109602
# 126641
# 141736
# 155201
# 171609
# 186101
# 201060
# 215936
# 230101
# 243848
#
# Disc length: 3558 seconds
#
#
# Revision: 0
# Processed by: cddbd v1.5.1PL0 Copyright (c) Steve Scherf et al.
# Submitted via: FreeRIP 2.80 
#
DISCID=010de411
DTITLE=Giwrgos 3intaris - o skopelitis
DYEAR=1900
DGENRE=Blues
TTITLE0=Maritsa
TTITLE1=o zorikos
TTITLE2=ta pantremenadika
TTITLE3=pws 8a perasei i bradia
TTITLE4=ta ftwxadakia
TTITLE5=koritsi apono
TTITLE6=einai krima
TTITLE7=ap'tis zeas to limani
TTITLE8=poia na 'sai
TTITLE9=apopse ela konta mou
TTITLE10=pare pia ton dromo sou
TTITLE11=parastratisa gia sena
TTITLE12=8elw na s'antamwsw
TTITLE13=o ta3idiwtis
TTITLE14=kaimo megalo apoxtisa
TTITLE15=o xatzixristos
TTITLE16=Manes
EXTD=
EXTT0=
EXTT1=
EXTT2=
EXTT3=
EXTT4=
EXTT5=
EXTT6=
EXTT7=
EXTT8=
EXTT9=
EXTT10=
EXTT11=
EXTT12=
EXTT13=
EXTT14=
EXTT15=
EXTT16=
PLAYORDER=
